<svg xmlns="http://www.w3.org/2000/svg" viewBox="0 0 160 160"><path d="M20 118c18-38 36-58 60-58s42 20 60 58" fill="none" stroke="#ff6b9d" stroke-width="10" stroke-linecap="round"/><path d="M32 118c14-30 30-46 48-46s34 16 48 46" fill="none" stroke="#ffd166" stroke-width="10" stroke-linecap="round"/><circle cx="80" cy="88" r="42" fill="#ffd7a8"/><path d="M48 58 38 28l28 18M112 58l10-30-28 18" fill="#ffd7a8" stroke="#5b3b2e" stroke-width="5" stroke-linejoin="round"/><circle cx="65" cy="86" r="6" fill="#2d2730"/><circle cx="95" cy="86" r="6" fill="#2d2730"/><path d="M80 93v10M66 106c8 8 20 8 28 0" fill="none" stroke="#2d2730" stroke-width="5" stroke-linecap="round"/><circle cx="53" cy="98" r="7" fill="#ff9fbf"/><circle cx="107" cy="98" r="7" fill="#ff9fbf"/></svg>