<svg xmlns="http://www.w3.org/2000/svg" viewBox="0 0 160 160"><circle cx="80" cy="88" r="42" fill="#c98b5b"/><ellipse cx="45" cy="78" rx="17" ry="31" fill="#8d5b3d"/><ellipse cx="115" cy="78" rx="17" ry="31" fill="#8d5b3d"/><circle cx="66" cy="86" r="6" fill="#241b18"/><circle cx="94" cy="86" r="6" fill="#241b18"/><ellipse cx="80" cy="101" rx="13" ry="10" fill="#fff2df"/><circle cx="80" cy="96" r="5" fill="#241b18"/><path d="M80 102c0 9-13 11-18 5M80 102c0 9 13 11 18 5" fill="none" stroke="#241b18" stroke-width="4" stroke-linecap="round"/><path d="m124 30 7 16 18 2-14 11 4 18-15-10-15 10 4-18-14-11 18-2z" fill="#ffd166" stroke="#f4a261" stroke-width="3"/></svg>