<svg xmlns="http://www.w3.org/2000/svg" viewBox="0 0 160 160"><path d="M34 85c10-30 31-45 46-45s36 15 46 45c-10 31-29 45-46 45S44 116 34 85Z" fill="#f77f00"/><path d="M52 59 42 28l30 19M108 59l10-31-30 19" fill="#f77f00" stroke="#7f3b08" stroke-width="5" stroke-linejoin="round"/><path d="M58 98c10 16 34 16 44 0l-22 25z" fill="#fff0d8"/><circle cx="65" cy="82" r="5" fill="#201510"/><circle cx="95" cy="82" r="5" fill="#201510"/><circle cx="80" cy="94" r="5" fill="#201510"/><path d="M28 121c22-15 40-12 54 5-28 12-45 6-54-5Z" fill="#69b578"/><path d="M33 121c16-3 31-2 45 5" stroke="#2f7d4e" stroke-width="4" fill="none" stroke-linecap="round"/></svg>