<svg xmlns="http://www.w3.org/2000/svg" viewBox="0 0 160 160"><rect width="160" height="160" fill="#ffffff"/><g stroke="#a7c7ff" stroke-width="1"><path d="M0 30h160M0 54h160M0 78h160M0 102h160M0 126h160M0 150h160"/></g><path d="M30 0v160" stroke="#ffb3c6" stroke-width="2"/><g fill="none" stroke-linecap="round" stroke-width="4"><path d="M55 44c12-20 30 0 0 20-30-20-12-40 0-20Z" stroke="#ff7aa8"/><path d="M104 56l8 16 18 3-13 12 3 18-16-9-16 9 3-18-13-12 18-3z" stroke="#ffd166"/><path d="M52 120c16-11 35-11 51 0" stroke="#5eead4"/></g></svg>