<svg xmlns="http://www.w3.org/2000/svg" viewBox="0 0 160 160"><path d="M55 93c0-28 20-49 48-49 22 0 39 15 39 36 0 31-28 49-64 49H43c-12 0-22-10-22-22 0-8 4-15 10-19 8 4 15 5 24 5Z" fill="#ffffff" stroke="#6d5dfc" stroke-width="6"/><path d="M90 43 105 12l13 36" fill="#ffd166" stroke="#f4a261" stroke-width="4"/><path d="M79 46c-9 8-18 20-21 34" stroke="#ff7aa8" stroke-width="9" stroke-linecap="round"/><circle cx="116" cy="75" r="5" fill="#2d2730"/><path d="M121 91c-8 7-18 7-26 0" fill="none" stroke="#2d2730" stroke-width="4" stroke-linecap="round"/><path d="m38 34 6 13 14 2-10 9 3 14-13-7-13 7 3-14-10-9 14-2z" fill="#ffd166"/></svg>