<svg xmlns="http://www.w3.org/2000/svg" viewBox="0 0 160 160"><rect width="160" height="160" fill="#fff7fb"/><g opacity=".9"><circle cx="24" cy="34" r="6" fill="#ff7aa8"/><circle cx="80" cy="23" r="5" fill="#ffd166"/><circle cx="132" cy="45" r="6" fill="#5eead4"/><circle cx="44" cy="100" r="5" fill="#3a86ff"/><circle cx="118" cy="124" r="6" fill="#9b5de5"/><rect x="88" y="78" width="16" height="7" rx="3" fill="#ff9f1c" transform="rotate(25 96 82)"/><rect x="23" y="130" width="16" height="7" rx="3" fill="#5eead4" transform="rotate(-20 31 134)"/><rect x="125" y="82" width="16" height="7" rx="3" fill="#ff7aa8" transform="rotate(-35 133 86)"/></g><path d="M28 160c5-30 20-48 45-54 24 7 39 25 45 54" fill="#ffd166" opacity=".55"/><path d="M8 160c6-23 19-38 40-45 22 8 37 23 45 45" fill="#8be9ff" opacity=".45"/></svg>