<svg xmlns="http://www.w3.org/2000/svg" viewBox="0 0 160 160"><path d="M82 18c28 17 42 54 28 89L55 52c10-18 19-29 27-34Z" fill="#ffffff" stroke="#3a86ff" stroke-width="6"/><circle cx="88" cy="60" r="13" fill="#8be9ff" stroke="#3a86ff" stroke-width="5"/><path d="M55 52 27 73l35 8M110 107l-21 28-8-35" fill="#ff7aa8" stroke="#3a86ff" stroke-width="5" stroke-linejoin="round"/><path d="M51 104c-10 5-18 16-22 32 16-4 27-12 32-22" fill="#ffd166"/><path d="M39 124c-4 4-7 9-10 16 7-3 12-6 16-10" fill="#ff7aa8"/><path d="M22 41h30" stroke="#ff6b9d" stroke-width="7" stroke-linecap="round"/><path d="M16 58h38" stroke="#ffd166" stroke-width="7" stroke-linecap="round"/><path d="M12 75h35" stroke="#5eead4" stroke-width="7" stroke-linecap="round"/></svg>