<?xml version="1.0" encoding="UTF-8"?>
<svg xmlns="http://www.w3.org/2000/svg" viewBox="0 0 1600 1000">
  <defs>
    <linearGradient id="g" x1="0" y1="0" x2="1" y2="1">
      <stop offset="0" stop-color="hsl(325, 92%, 91%)"/>
      <stop offset="1" stop-color="hsl(35, 84%, 80%)"/>
    </linearGradient>
  </defs>
  <rect width="1600" height="1000" fill="url(#g)"/>
  <rect width="1600" height="1000" fill="hsla(353, 90%, 92%, 0.7)" opacity="0.28"/>
  <g opacity="0.9"><circle cx="214" cy="151" r="19.855080351233482" fill="hsl(119, 80%, 78%)" opacity="0.2"/><circle cx="397" cy="57" r="19.002464048564434" fill="hsl(59, 92%, 67%)" opacity="0.2"/><circle cx="804" cy="541" r="20.35935116931796" fill="hsl(119, 80%, 78%)" opacity="0.2"/><circle cx="621" cy="455" r="16.26740236207843" fill="hsl(59, 92%, 67%)" opacity="0.2"/><circle cx="1048" cy="542" r="22.565824415534735" fill="hsl(119, 80%, 78%)" opacity="0.2"/><circle cx="152" cy="811" r="21.135118924081326" fill="hsl(59, 92%, 67%)" opacity="0.2"/><circle cx="904" cy="695" r="22.587027847766876" fill="hsl(119, 80%, 78%)" opacity="0.2"/><circle cx="875" cy="372" r="24.558763720095158" fill="hsl(59, 92%, 67%)" opacity="0.2"/><circle cx="441" cy="519" r="13.306926470249891" fill="hsl(119, 80%, 78%)" opacity="0.2"/><circle cx="897" cy="445" r="21.950030088424683" fill="hsl(59, 92%, 67%)" opacity="0.2"/><circle cx="798" cy="269" r="17.23264452815056" fill="hsl(119, 80%, 78%)" opacity="0.2"/><circle cx="1026" cy="189" r="10.660266309976578" fill="hsl(59, 92%, 67%)" opacity="0.2"/><circle cx="1012" cy="811" r="10.184461403638124" fill="hsl(119, 80%, 78%)" opacity="0.2"/><circle cx="1541" cy="299" r="10.110322952270508" fill="hsl(59, 92%, 67%)" opacity="0.2"/><circle cx="692" cy="596" r="21.16110848635435" fill="hsl(119, 80%, 78%)" opacity="0.2"/><circle cx="1393" cy="195" r="11.120636191219091" fill="hsl(59, 92%, 67%)" opacity="0.2"/><circle cx="368" cy="863" r="25.086725302040577" fill="hsl(119, 80%, 78%)" opacity="0.2"/><circle cx="602" cy="736" r="13.002690967172384" fill="hsl(59, 92%, 67%)" opacity="0.2"/><circle cx="556" cy="178" r="19.776196870952845" fill="hsl(119, 80%, 78%)" opacity="0.2"/><circle cx="1069" cy="362" r="17.955552257597446" fill="hsl(59, 92%, 67%)" opacity="0.2"/></g>
  <g transform="translate(800 505)">
    <path d="M -226 -64 H 226 Q 280 -64 280 -10 V 10 Q 280 64 226 64 H -226 Q -280 64 -280 10 V -10 Q -280 -64 -226 -64 Z" fill="rgba(255,255,255,0.48)" stroke="rgba(255,255,255,0.75)" stroke-width="6"/>
    <text x="0" y="18" text-anchor="middle" font-family="Arial, sans-serif" font-size="86" font-weight="800" fill="hsl(9, 56%, 32%)" opacity="0.72">robot</text>
  </g>
</svg>