<?xml version="1.0" encoding="UTF-8"?>
<svg xmlns="http://www.w3.org/2000/svg" viewBox="0 0 1600 1000">
  <defs>
    <linearGradient id="g" x1="0" y1="0" x2="1" y2="1">
      <stop offset="0" stop-color="hsl(148, 92%, 91%)"/>
      <stop offset="1" stop-color="hsl(218, 84%, 80%)"/>
    </linearGradient>
  </defs>
  <rect width="1600" height="1000" fill="url(#g)"/>
  <rect width="1600" height="1000" fill="hsla(176, 90%, 92%, 0.7)" opacity="0.28"/>
  <g opacity="0.9"><circle cx="401" cy="133" r="23.70477171987295" fill="hsl(302, 80%, 78%)" opacity="0.2"/><circle cx="177" cy="315" r="19.17092002555728" fill="hsl(242, 92%, 67%)" opacity="0.2"/><circle cx="1103" cy="846" r="18.939266569912434" fill="hsl(302, 80%, 78%)" opacity="0.2"/><circle cx="492" cy="136" r="23.238174714148045" fill="hsl(242, 92%, 67%)" opacity="0.2"/><circle cx="1363" cy="801" r="22.71248358860612" fill="hsl(302, 80%, 78%)" opacity="0.2"/><circle cx="472" cy="178" r="18.036381997168064" fill="hsl(242, 92%, 67%)" opacity="0.2"/><circle cx="685" cy="695" r="10.27614626660943" fill="hsl(302, 80%, 78%)" opacity="0.2"/><circle cx="932" cy="457" r="24.617433235049248" fill="hsl(242, 92%, 67%)" opacity="0.2"/><circle cx="742" cy="389" r="13.32619171217084" fill="hsl(302, 80%, 78%)" opacity="0.2"/><circle cx="661" cy="629" r="24.947524692863226" fill="hsl(242, 92%, 67%)" opacity="0.2"/><circle cx="1332" cy="476" r="18.122061423957348" fill="hsl(302, 80%, 78%)" opacity="0.2"/><circle cx="1487" cy="814" r="11.006288755685091" fill="hsl(242, 92%, 67%)" opacity="0.2"/><circle cx="1459" cy="188" r="25.72035812214017" fill="hsl(302, 80%, 78%)" opacity="0.2"/><circle cx="50" cy="107" r="20.338008794933558" fill="hsl(242, 92%, 67%)" opacity="0.2"/><circle cx="652" cy="138" r="15.53192799910903" fill="hsl(302, 80%, 78%)" opacity="0.2"/><circle cx="1413" cy="232" r="15.74366394430399" fill="hsl(242, 92%, 67%)" opacity="0.2"/><circle cx="686" cy="344" r="25.727326314896345" fill="hsl(302, 80%, 78%)" opacity="0.2"/><circle cx="786" cy="800" r="19.353295892477036" fill="hsl(242, 92%, 67%)" opacity="0.2"/><circle cx="141" cy="767" r="19.346553903073072" fill="hsl(302, 80%, 78%)" opacity="0.2"/><circle cx="1372" cy="325" r="11.002192549407482" fill="hsl(242, 92%, 67%)" opacity="0.2"/></g>
  <g transform="translate(800 505)">
    <path d="M -226 -64 H 226 Q 280 -64 280 -10 V 10 Q 280 64 226 64 H -226 Q -280 64 -280 10 V -10 Q -280 -64 -226 -64 Z" fill="rgba(255,255,255,0.48)" stroke="rgba(255,255,255,0.75)" stroke-width="6"/>
    <text x="0" y="18" text-anchor="middle" font-family="Arial, sans-serif" font-size="86" font-weight="800" fill="hsl(192, 56%, 32%)" opacity="0.72">robot</text>
  </g>
</svg>