<?xml version="1.0" encoding="UTF-8"?>
<svg xmlns="http://www.w3.org/2000/svg" viewBox="0 0 1024 1024">
  <defs>
    <filter id="shadow" x="-20%" y="-20%" width="140%" height="140%">
      <feDropShadow dx="0" dy="14" stdDeviation="18" flood-color="#000" flood-opacity="0.18"/>
    </filter>
  </defs>
  <rect width="1024" height="1024" fill="none"/>
  <g filter="url(#shadow)">
    <path d="M512 234 C626 234 730 322 730 442 C730 500 706 555 668 592 C729 636 768 703 768 770 C768 804 740 832 706 832 H318 C284 832 256 804 256 770 C256 702 296 636 356 592 C318 555 294 500 294 442 C294 322 398 234 512 234 Z" fill="hsl(294, 88%, 83%)" stroke="hsl(304, 28%, 26%)" stroke-width="18"/>
      <circle cx="362" cy="354" r="28" fill="hsl(0, 92%, 67%)" opacity="0.8"/><circle cx="670" cy="352" r="22" fill="hsl(60, 80%, 78%)" opacity="0.85"/>
    
    <circle cx="412" cy="470" r="18" fill="hsl(304, 28%, 26%)"/>
    <circle cx="612" cy="470" r="18" fill="hsl(304, 28%, 26%)"/>
    <circle cx="407" cy="464" r="5" fill="#fff" opacity="0.7"/>
    <circle cx="607" cy="464" r="5" fill="#fff" opacity="0.7"/>
    <path d="M420 590 Q512 660 604 590" fill="none" stroke="hsl(304, 28%, 26%)" stroke-width="20" stroke-linecap="round"/>
    <circle cx="414" cy="555" r="16" fill="#ff9fb4" opacity="0.65"/>
    <circle cx="610" cy="555" r="16" fill="#ff9fb4" opacity="0.65"/>
  </g>
  <circle cx="702" cy="350" r="16" fill="hsl(0, 92%, 67%)" opacity="0.5"/><circle cx="356" cy="290" r="18" fill="hsl(60, 80%, 78%)" opacity="0.5"/><circle cx="185" cy="388" r="12" fill="hsl(0, 92%, 67%)" opacity="0.5"/><circle cx="572" cy="521" r="9" fill="hsl(60, 80%, 78%)" opacity="0.5"/><circle cx="822" cy="517" r="12" fill="hsl(0, 92%, 67%)" opacity="0.5"/><circle cx="800" cy="589" r="18" fill="hsl(60, 80%, 78%)" opacity="0.5"/><circle cx="554" cy="372" r="10" fill="hsl(0, 92%, 67%)" opacity="0.5"/>
  <g transform="translate(170 794)">
    <path d="M 44 0 H 640 Q 684 0 684 44 V 66 Q 684 110 640 110 H 44 Q 0 110 0 66 V 44 Q 0 0 44 0 Z" fill="hsl(318, 100%, 96%)" stroke="hsl(304, 28%, 26%)" stroke-width="14"/>
    <text x="342" y="70" text-anchor="middle" font-family="Arial, sans-serif" font-size="54" font-weight="800" fill="hsl(310, 56%, 32%)">angeli</text>
  </g>
</svg>