<svg xmlns="http://www.w3.org/2000/svg" viewBox="0 0 160 160"><path d="M30 106c9-25 26-38 50-38s41 13 50 38" fill="none" stroke="#ff6b9d" stroke-width="9" stroke-linecap="round"/><path d="M43 107c7-18 19-27 37-27s30 9 37 27" fill="none" stroke="#ffd166" stroke-width="9" stroke-linecap="round"/><path d="M56 108c5-12 13-17 24-17s19 5 24 17" fill="none" stroke="#5eead4" stroke-width="9" stroke-linecap="round"/><path d="M42 111h80c13 0 23-10 23-22s-10-22-23-22c-4 0-8 1-11 3-7-15-22-25-39-25-22 0-40 17-42 39-11 2-19 11-19 22 0 13 11 25 31 25Z" fill="#ffffff" stroke="#bde0fe" stroke-width="6"/><circle cx="68" cy="91" r="5" fill="#2d2730"/><circle cx="95" cy="91" r="5" fill="#2d2730"/><path d="M72 102c7 6 16 6 23 0" fill="none" stroke="#2d2730" stroke-width="4" stroke-linecap="round"/></svg>