<svg xmlns="http://www.w3.org/2000/svg" viewBox="0 0 160 160"><circle cx="80" cy="80" r="24" fill="#ffd166"/><g fill="#ff7aa8"><ellipse cx="80" cy="35" rx="18" ry="28"/><ellipse cx="80" cy="125" rx="18" ry="28"/><ellipse cx="35" cy="80" rx="28" ry="18"/><ellipse cx="125" cy="80" rx="28" ry="18"/><ellipse cx="48" cy="48" rx="18" ry="28" transform="rotate(-45 48 48)"/><ellipse cx="112" cy="48" rx="18" ry="28" transform="rotate(45 112 48)"/><ellipse cx="48" cy="112" rx="18" ry="28" transform="rotate(45 48 112)"/><ellipse cx="112" cy="112" rx="18" ry="28" transform="rotate(-45 112 112)"/></g><circle cx="70" cy="76" r="4" fill="#2d2730"/><circle cx="90" cy="76" r="4" fill="#2d2730"/><path d="M67 88c8 8 18 8 26 0" fill="none" stroke="#2d2730" stroke-width="4" stroke-linecap="round"/></svg>